inDegrees=yes
name=ik_lifting_orientations
DataType=double
version=3
OpenSimVersion=4.5-2024-01-10-34fd6af
endheader
time	pelvis_tilt	pelvis_list	pelvis_rotation	pelvis_tx	pelvis_ty	pelvis_tz	hip_flexion_r	hip_adduction_r	hip_rotation_r	knee_angle_r	knee_angle_r_beta	ankle_angle_r	subtalar_angle_r	mtp_angle_r	hip_flexion_l	hip_adduction_l	hip_rotation_l	knee_angle_l	knee_angle_l_beta	ankle_angle_l	subtalar_angle_l	mtp_angle_l	lumbar_extension	lumbar_bending	lumbar_rotation	arm_flex_r	arm_add_r	arm_rot_r	elbow_flex_r	pro_sup_r	wrist_flex_r	wrist_dev_r	arm_flex_l	arm_add_l	arm_rot_l	elbow_flex_l	pro_sup_l	wrist_flex_l	wrist_dev_l
1.83	2.965960121175683	5.790997226465942	-63.02026963451814	0	0.9399999998679526	0	44.73950771283565	-10.79005863973307	0	59.37385456306486	1.036269251725741	-5.308368628580121	0	0	44.73950771283565	-10.79005863973307	0	59.37385456306486	1.036269251725741	-5.308368628580121	0	0	2.186777859514237	-0.4548139731542599	-27.70655569371057	82.8256909939344	14.76155360281461	37.06766405414628	63.27224930324748	3.300086880695322	0	0	0	-10.37561151968793	0	86.7496239064682	3.300086880695322	0	0
1.84	2.866597358554408	5.735479718521124	-62.08447989829839	0	0.9399999998679526	0	44.73965684943221	-10.78849151377475	0	59.37413794555586	1.036274197683251	-5.307572407368704	0	0	44.73965684943221	-10.78849151377475	0	59.37413794555586	1.036274197683251	-5.307572407368704	0	0	2.206929716757548	-0.4279322259832497	-28.99460715608076	83.386557522388	15.76880996383224	37.11037635348827	61.07671656553055	3.298767153317514	0	0	0	-10.37697615098841	0	86.75092363656799	3.298767153317514	0	0
1.85	2.812294453271625	5.738930754307144	-61.62875482027918	0	0.9399999998679526	0	44.73975634566352	-10.78743905062873	0	59.3743258347919	1.036277476969049	-5.307037147025695	0	0	44.73975634566352	-10.78743905062873	0	59.3743258347919	1.036277476969049	-5.307037147025695	0	0	2.252428966062739	-0.3677785106638622	-29.75081261583838	83.84410344278699	16.24948863394649	37.24047346494437	58.95817154675586	3.297888700371656	0	0	0	-10.37788269337265	0	86.75178877826896	3.297888700371656	0	0
1.86	2.789807360416428	5.710904394600566	-61.51879860182949	0	0.9399999998679526	0	44.73985031682722	-10.78644530655773	0	59.37450321609173	1.036280572856763	-5.306531882651055	0	0	44.73985031682722	-10.78644530655773	0	59.37450321609173	1.036280572856763	-5.306531882651055	0	0	2.231150761045551	-0.2666445649076611	-30.08222338604118	84.144217763531	16.67397850383807	37.47216383524825	57.35428629869628	3.297059094507157	0	0	0	-10.37873874650206	0	86.75260581306259	3.297059094507157	0	0
1.87	2.834299604368505	5.653351211898025	-62.36321840931972	0	0.9399999998679526	0	44.73996459758927	-10.78524344788423	0	59.37471971567516	1.036284351487323	-5.3059216112966	0	0	44.73996459758927	-10.78524344788423	0	59.37471971567516	1.036284351487323	-5.3059216112966	0	0	2.152602672832498	-0.1696522605609671	-29.48168004289403	84.80455953655132	17.38857065915874	37.23322360188264	55.34638731259102	3.296048692859264	0	0	0	-10.37978264343445	0	86.75360090434938	3.296048692859264	0	0
1.88	2.826873988743	5.583281790596291	-62.81196979050848	0	0.9399999998679526	0	44.74010867286642	-10.78372019886248	0	59.37499127648184	1.036289091117519	-5.305147568619431	0	0	44.74010867286642	-10.78372019886248	0	59.37499127648184	1.036289091117519	-5.305147568619431	0	0	2.080737895911472	-0.001737063949007762	-29.70735279609641	85.36972795730728	18.2495473533615	36.97261336488667	53.49370002489089	3.294777209868427	0	0	0	-10.38109416682559	0	86.75485312040018	3.294777209868427	0	0
1.89	2.818561731427643	5.49674212504307	-63.25254963808125	0	0.9399999998679526	0	44.74023348656369	-10.78240279159996	0	59.37522662563566	1.036293198735145	-5.304478543262666	0	0	44.74023348656369	-10.78240279159996	0	59.37522662563566	1.036293198735145	-5.304478543262666	0	0	2.014489514571742	0.1991337889499617	-30.24159492957796	85.95531076139409	19.44203642802983	36.6646232557709	51.57813456468104	3.293675420170852	0	0	0	-10.38223086615385	0	86.75593821461142	3.293675420170852	0	0
1.9	2.756741656991307	5.297102239977606	-63.73894312915017	0	0.9399999998679526	0	44.74036915913511	-10.78097414586612	0	59.37548270622565	1.036297668184591	-5.30375356744442	0	0	44.74036915913511	-10.78097414586612	0	59.37548270622565	1.036297668184591	-5.30375356744442	0	0	1.8875669095337	0.3863359618412716	-30.36084587159045	86.47527398153028	20.29804363685484	36.41942336741297	50.17028301204828	3.292477183908064	0	0	0	-10.38346754318224	0	86.75711829406063	3.292477183908064	0	0
